Coordinates
version=1
nRows=31
nColumns=38
inDegrees=no

Units are S.I. units (second, meters, Newtons, ...)
If the header above contains a line with 'inDegrees', this indicates whether rotational values are in degrees (yes) or radians (no).

endheader
time	pelvis_tilt	pelvis_list	pelvis_rotation	pelvis_tx	pelvis_ty	pelvis_tz	hip_flexion_r	hip_adduction_r	hip_rotation_r	knee_angle_r	ankle_angle_r	subtalar_angle_r	mtp_angle_r	hip_flexion_l	hip_adduction_l	hip_rotation_l	knee_angle_l	ankle_angle_l	subtalar_angle_l	mtp_angle_l	lumbar_extension	lumbar_bending	lumbar_rotation	arm_flex_r	arm_add_r	arm_rot_r	elbow_flex_r	pro_sup_r	wrist_flex_r	wrist_dev_r	arm_flex_l	arm_add_l	arm_rot_l	elbow_flex_l	pro_sup_l	wrist_flex_l	wrist_dev_l
2.06	1.75325	1.45226	-0.401523	0.568544	1.5455	0.955941	-0.0747926	0.183938	0.0918167	0.146576	0.0327938	0	0	0.496785	-0.325599	-0.221187	0.993251	0.0513786	0	0	-0.136584	0.0978744	0.10562	-0.303414	-0.121834	-0.466974	0.484239	0.886706	0	0	-0.151596	-0.338012	0.599689	0.603256	0.570128	0	0
2.07	1.73512	1.45401	-0.385967	0.569002	1.55337	0.955406	-0.0832383	0.181467	0.0971625	0.143602	0.0375729	0	0	0.49754	-0.325903	-0.237069	0.941764	0.0561473	0	0	-0.136383	0.0973356	0.105082	-0.303634	-0.123202	-0.455556	0.489707	0.870143	0	0	-0.152465	-0.335844	0.593718	0.598612	0.584914	0	0
2.08	1.70535	1.45555	-0.356822	0.569262	1.56121	0.954633	-0.0900276	0.179712	0.100085	0.140933	0.042506	0	0	0.499815	-0.325478	-0.252419	0.889576	0.0612978	0	0	-0.134908	0.0976545	0.103472	-0.302762	-0.122329	-0.457655	0.493074	0.874985	0	0	-0.152475	-0.335929	0.596054	0.597243	0.580033	0	0
2.09	1.67811	1.45726	-0.329833	0.569392	1.56907	0.953832	-0.0974386	0.177334	0.103597	0.137571	0.0471709	0	0	0.500461	-0.323737	-0.269457	0.835439	0.0660447	0	0	-0.133988	0.0975608	0.101709	-0.302101	-0.121657	-0.459216	0.498031	0.879271	0	0	-0.152123	-0.335804	0.597589	0.595576	0.576685	0	0
2.1	1.65007	1.45888	-0.301673	0.569439	1.57708	0.952979	-0.105085	0.174786	0.106611	0.134083	0.0522478	0	0	0.499989	-0.321436	-0.288718	0.780419	0.0705536	0	0	-0.132832	0.0975988	0.0997322	-0.302188	-0.120923	-0.459925	0.503871	0.883047	0	0	-0.151811	-0.335458	0.598708	0.592978	0.575274	0	0
2.11	1.62157	1.46058	-0.272575	0.569342	1.58525	0.952067	-0.112788	0.171906	0.10883	0.130704	0.0577427	0	0	0.498662	-0.318087	-0.309892	0.724822	0.0743404	0	0	-0.131436	0.097547	0.0972824	-0.30268	-0.120438	-0.458562	0.509657	0.885737	0	0	-0.151667	-0.334932	0.599182	0.590303	0.574691	0	0
2.12	1.59156	1.46237	-0.241462	0.569071	1.59354	0.951067	-0.120195	0.168681	0.110492	0.127757	0.0636546	0	0	0.496881	-0.313485	-0.332527	0.669161	0.0772853	0	0	-0.129682	0.0974731	0.0942277	-0.303315	-0.12013	-0.45656	0.515694	0.887013	0	0	-0.151969	-0.334195	0.599672	0.587809	0.575104	0	0
2.13	1.56233	1.46425	-0.210638	0.568626	1.6019	0.950027	-0.1272	0.164954	0.110776	0.12569	0.0704259	0	0	0.494415	-0.307354	-0.355901	0.613578	0.079707	0	0	-0.128079	0.0972205	0.0904771	-0.303768	-0.120002	-0.454332	0.522245	0.887869	0	0	-0.152467	-0.333388	0.60073	0.585143	0.576756	0	0
2.14	1.53519	1.46699	-0.181608	0.56802	1.61037	0.948995	-0.133555	0.159837	0.109208	0.125243	0.0782212	0	0	0.490405	-0.298169	-0.378496	0.556697	0.0819241	0	0	-0.126639	0.0959451	0.0867329	-0.304394	-0.120222	-0.450429	0.528989	0.888246	0	0	-0.152375	-0.332291	0.600362	0.582119	0.57827	0	0
2.15	1.50239	1.47016	-0.146626	0.567243	1.6189	0.947879	-0.138168	0.154035	0.105283	0.127091	0.0868271	0	0	0.486693	-0.286782	-0.399404	0.500711	0.08644	0	0	-0.124661	0.0943479	0.0827218	-0.305243	-0.121362	-0.442019	0.535645	0.879018	0	0	-0.152632	-0.32966	0.592333	0.578094	0.589192	0	0
2.16	1.45355	1.47314	-0.0956132	0.566376	1.62752	0.946584	-0.140267	0.148458	0.100762	0.131166	0.0957177	0	0	0.485118	-0.274717	-0.41854	0.44795	0.0945062	0	0	-0.120966	0.093085	0.0788681	-0.305457	-0.121962	-0.439326	0.541256	0.876447	0	0	-0.152773	-0.327721	0.588516	0.574163	0.593917	0	0
2.17	1.41764	1.47957	-0.0569238	0.565176	1.63623	0.945521	-0.142108	0.138224	0.0917726	0.138494	0.107128	0	0	0.476518	-0.252392	-0.424687	0.383683	0.0989441	0	0	-0.118689	0.0876269	0.0737294	-0.303656	-0.121901	-0.43944	0.544106	0.881971	0	0	-0.15218	-0.325712	0.586098	0.568282	0.595484	0	0
2.18	1.36865	1.48535	-0.00583459	0.563939	1.64508	0.944336	-0.142685	0.128478	0.0845015	0.147167	0.117856	0	0	0.467535	-0.22962	-0.423505	0.319209	0.101832	0	0	-0.115404	0.0827488	0.0693989	-0.302649	-0.12258	-0.437446	0.547405	0.882283	0	0	-0.15203	-0.32412	0.584856	0.563105	0.597039	0	0
2.19	1.32201	1.49142	0.0421741	0.562683	1.65415	0.943231	-0.14355	0.117981	0.077486	0.157375	0.12847	0	0	0.453128	-0.203927	-0.409305	0.247621	0.0971328	0	0	-0.112659	0.0772375	0.065959	-0.301769	-0.123622	-0.435088	0.549886	0.882509	0	0	-0.152029	-0.322342	0.582991	0.558065	0.596602	0	0
2.2	1.27133	1.49617	0.092853	0.561582	1.66347	0.942069	-0.144565	0.108693	0.0719905	0.168215	0.138237	0	0	0.437492	-0.18082	-0.388635	0.1787	0.0869778	0	0	-0.109636	0.0728298	0.0643021	-0.301945	-0.125093	-0.433502	0.553193	0.883099	0	0	-0.152484	-0.320671	0.581604	0.553788	0.595684	0	0
2.21	1.21381	1.49826	0.149515	0.56067	1.67294	0.940743	-0.145029	0.10228	0.0680906	0.179705	0.146996	0	0	0.428158	-0.165356	-0.37251	0.128664	0.0798505	0	0	-0.105861	0.0707969	0.0637558	-0.303103	-0.126703	-0.432295	0.556771	0.883866	0	0	-0.153817	-0.319423	0.581624	0.550899	0.595444	0	0
2.22	1.16623	1.49814	0.196432	0.559882	1.68245	0.939353	-0.146605	0.0986016	0.0660603	0.190149	0.153864	0	0	0.428193	-0.157868	-0.365976	0.106278	0.082095	0	0	-0.102676	0.0707531	0.0633951	-0.304361	-0.128151	-0.431853	0.559361	0.88478	0	0	-0.155289	-0.318727	0.582068	0.548991	0.595284	0	0
2.23	1.13959	1.4974	0.222826	0.559154	1.69204	0.938031	-0.150055	0.0959851	0.0639836	0.200052	0.159708	0	0	0.435307	-0.155653	-0.36616	0.108402	0.0891075	0	0	-0.101098	0.071188	0.0630545	-0.305773	-0.129503	-0.430846	0.561536	0.884921	0	0	-0.156486	-0.318455	0.581872	0.547771	0.595153	0	0
2.24	1.13011	1.49668	0.232161	0.558517	1.70172	0.936799	-0.154569	0.0936593	0.0608382	0.210766	0.165559	0	0	0.448688	-0.157887	-0.37265	0.132236	0.095646	0	0	-0.100952	0.0714887	0.063376	-0.307747	-0.13048	-0.430637	0.56451	0.884609	0	0	-0.157227	-0.318844	0.581353	0.547646	0.593975	0	0
2.25	1.08675	1.4905	0.274656	0.558342	1.71141	0.934991	-0.152925	0.0971	0.0586983	0.225548	0.171774	0	0	0.485958	-0.177486	-0.409491	0.204849	0.115606	0	0	-0.0959262	0.0763459	0.0651968	-0.313362	-0.132206	-0.424488	0.570624	0.870875	0	0	-0.159791	-0.317947	0.572066	0.547276	0.608249	0	0
2.26	1.11426	1.49216	0.243679	0.558189	1.7217	0.934179	-0.161612	0.0926208	0.0593657	0.236697	0.175957	0	0	0.495081	-0.182256	-0.41322	0.239679	0.109445	0	0	-0.0986586	0.0739919	0.0704934	-0.316896	-0.131614	-0.426266	0.57095	0.873024	0	0	-0.16051	-0.320206	0.576234	0.548353	0.602546	0	0
2.27	1.13834	1.49298	0.213886	0.558285	1.73222	0.933321	-0.168702	0.0885815	0.0627005	0.250083	0.179795	0	0	0.505722	-0.190932	-0.42229	0.282825	0.106558	0	0	-0.100127	0.0721793	0.0786425	-0.322126	-0.130796	-0.42859	0.57134	0.874786	0	0	-0.161795	-0.322646	0.581465	0.549183	0.597646	0	0
2.28	1.15876	1.49325	0.185147	0.558562	1.74302	0.932445	-0.174373	0.0844554	0.0686454	0.265565	0.182921	0	0	0.513828	-0.200989	-0.431616	0.325882	0.107732	0	0	-0.100385	0.0708454	0.0896422	-0.328721	-0.130146	-0.432095	0.572094	0.876332	0	0	-0.164161	-0.324904	0.584985	0.550785	0.593949	0	0
2.29	1.17482	1.49313	0.158306	0.558946	1.75412	0.93156	-0.178374	0.0799287	0.0759275	0.283891	0.185552	0	0	0.51814	-0.211138	-0.440134	0.365917	0.11368	0	0	-0.0992882	0.069969	0.102902	-0.336402	-0.130024	-0.434942	0.572396	0.877677	0	0	-0.167929	-0.325998	0.585093	0.553058	0.589669	0	0
2.3	1.18147	1.4926	0.139292	0.559353	1.76548	0.930641	-0.179921	0.0750245	0.083785	0.305461	0.187635	0	0	0.519199	-0.22058	-0.44642	0.401488	0.123173	0	0	-0.0965075	0.0695846	0.117197	-0.345024	-0.130446	-0.43741	0.572644	0.878766	0	0	-0.173523	-0.326433	0.583852	0.555929	0.585273	0	0
2.31	1.17293	1.4918	0.13459	0.559716	1.77708	0.929649	-0.178343	0.0695842	0.0924547	0.330332	0.189158	0	0	0.517752	-0.22847	-0.450738	0.431089	0.135515	0	0	-0.0914733	0.0695849	0.131402	-0.354205	-0.131109	-0.440613	0.57268	0.879883	0	0	-0.180964	-0.326364	0.581124	0.55874	0.580822	0	0
2.32	1.14543	1.49106	0.14895	0.559966	1.78895	0.928528	-0.17321	0.063383	0.101016	0.358685	0.189948	0	0	0.514643	-0.2338	-0.454613	0.453435	0.147705	0	0	-0.083786	0.0695926	0.144283	-0.363701	-0.131631	-0.445409	0.572492	0.881666	0	0	-0.190285	-0.325728	0.575835	0.561112	0.576603	0	0
2.33	1.10815	1.49085	0.175617	0.559911	1.80101	0.927372	-0.165034	0.0563408	0.106847	0.390988	0.18966	0	0	0.510238	-0.234998	-0.457811	0.467334	0.150953	0	0	-0.0747231	0.0690272	0.153344	-0.372457	-0.131867	-0.450541	0.571168	0.884356	0	0	-0.200808	-0.325063	0.568224	0.563737	0.571988	0	0
2.34	1.0474	1.49218	0.228712	0.559497	1.81316	0.926195	-0.152092	0.0469681	0.108225	0.428894	0.188484	0	0	0.505881	-0.230937	-0.460567	0.472761	0.136403	0	0	-0.0635926	0.0662415	0.157741	-0.379016	-0.131071	-0.45804	0.566282	0.896428	0	0	-0.2127	-0.32341	0.55456	0.564795	0.572592	0	0
2.35	0.986001	1.49481	0.287798	0.558592	1.82533	0.925304	-0.13807	0.036418	0.104876	0.468922	0.183327	0	0	0.501948	-0.222509	-0.459154	0.474715	0.107301	0	0	-0.0529036	0.0613029	0.15584	-0.382258	-0.129134	-0.468803	0.557466	0.920273	0	0	-0.223536	-0.326476	0.558502	0.569581	0.547448	0	0
2.36	0.926971	1.49852	0.348798	0.55731	1.83713	0.924877	-0.121291	0.025224	0.0979087	0.513899	0.172629	0	0	0.500815	-0.212993	-0.454292	0.482392	0.0807779	0	0	-0.0445651	0.0544245	0.147827	-0.384022	-0.129349	-0.462582	0.550538	0.909361	0	0	-0.234173	-0.326481	0.546992	0.569725	0.558504	0	0
